<svg width="32" height="32" viewBox="0 0 32 32" fill="none" xmlns="http://www.w3.org/2000/svg">
<g clip-path="url(#clip0_308_51)">
<path fill-rule="evenodd" clip-rule="evenodd" d="M0 16C0 7.16347 7.16347 0 16 0C24.8365 0 32 7.16347 32 16C32 24.8365 24.8365 32 16 32C7.16347 32 0 24.8365 0 16ZM16.0008 7.46667C13.6833 7.46667 13.3924 7.4768 12.4822 7.5182C11.5737 7.5598 10.9537 7.70367 10.4111 7.91467C9.8498 8.1326 9.37373 8.4242 8.8994 8.89867C8.42473 9.373 8.13313 9.84907 7.91447 10.4101C7.70293 10.9529 7.55893 11.5732 7.51807 12.4813C7.47733 13.3915 7.46667 13.6825 7.46667 16.0001C7.46667 18.3176 7.477 18.6076 7.5182 19.5178C7.56 20.4263 7.7038 21.0463 7.91467 21.5889C8.1328 22.1502 8.42433 22.6263 8.89887 23.1006C9.373 23.5753 9.84907 23.8675 10.41 24.0855C10.9529 24.2965 11.5732 24.4403 12.4815 24.4819C13.3917 24.5234 13.6824 24.5335 15.9997 24.5335C18.3175 24.5335 18.6074 24.5234 19.5177 24.4819C20.4261 24.4403 21.0469 24.2965 21.5899 24.0855C22.1509 23.8675 22.6263 23.5753 23.1004 23.1006C23.5751 22.6263 23.8667 22.1502 24.0853 21.5891C24.2951 21.0463 24.4391 20.4261 24.4818 19.518C24.5227 18.6077 24.5333 18.3176 24.5333 16.0001C24.5333 13.6825 24.5227 13.3917 24.4818 12.4815C24.4391 11.573 24.2951 10.9529 24.0853 10.4103C23.8667 9.84907 23.5751 9.373 23.1004 8.89867C22.6257 8.424 22.1511 8.13247 21.5893 7.91467C21.0453 7.70367 20.4249 7.5598 19.5164 7.5182C18.6061 7.4768 18.3164 7.46667 15.9981 7.46667H16.0008Z" fill="#FAF4EA"/>
<path fill-rule="evenodd" clip-rule="evenodd" d="M15.2349 9.00506C15.4621 9.00473 15.7157 9.00506 16.0005 9.00506C18.2789 9.00506 18.5489 9.01326 19.4487 9.05413C20.2807 9.0922 20.7323 9.2312 21.0331 9.348C21.4313 9.50266 21.7152 9.68753 22.0137 9.9862C22.3123 10.2849 22.4973 10.5693 22.6523 10.9676C22.7691 11.268 22.9083 11.7196 22.9461 12.5516C22.987 13.4511 22.9959 13.7214 22.9959 15.9987C22.9959 18.2761 22.987 18.5463 22.9461 19.4459C22.9081 20.2779 22.7691 20.7295 22.6523 21.0299C22.4976 21.4281 22.3123 21.7117 22.0137 22.0102C21.715 22.3089 21.4315 22.4937 21.0331 22.6484C20.7326 22.7657 20.2807 22.9044 19.4487 22.9425C18.5491 22.9833 18.2789 22.9922 16.0005 22.9922C13.7219 22.9922 13.4518 22.9833 12.5523 22.9425C11.7203 22.9041 11.2687 22.765 10.9677 22.6482C10.5695 22.4935 10.285 22.3087 9.98635 22.01C9.68768 21.7113 9.50282 21.4276 9.34782 21.0292C9.23102 20.7287 9.09182 20.2772 9.05395 19.4452C9.01302 18.5456 9.00488 18.2754 9.00488 15.9966C9.00488 13.7178 9.01302 13.449 9.05395 12.5495C9.09195 11.7175 9.23102 11.2659 9.34782 10.9651C9.50248 10.5669 9.68768 10.2824 9.98635 9.98373C10.285 9.68506 10.5695 9.5002 10.9677 9.34513C11.2685 9.2278 11.7203 9.08913 12.5523 9.05093C13.3395 9.0154 13.6445 9.00473 15.2349 9.00293V9.00506ZM20.5555 10.4219C19.9902 10.4219 19.5315 10.8801 19.5315 11.4456C19.5315 12.0109 19.9902 12.4696 20.5555 12.4696C21.1209 12.4696 21.5795 12.0109 21.5795 11.4456C21.5795 10.8803 21.1209 10.4219 20.5555 10.4219ZM16.0005 11.6184C13.5803 11.6184 11.6182 13.5806 11.6182 16.0007C11.6182 18.4208 13.5803 20.3821 16.0005 20.3821C18.4206 20.3821 20.382 18.4208 20.382 16.0007C20.382 13.5806 18.4206 11.6184 16.0005 11.6184Z" fill="#FAF4EA"/>
<path fill-rule="evenodd" clip-rule="evenodd" d="M16.0007 13.1553C17.5716 13.1553 18.8452 14.4287 18.8452 15.9997C18.8452 17.5706 17.5716 18.8442 16.0007 18.8442C14.4296 18.8442 13.1562 17.5706 13.1562 15.9997C13.1562 14.4287 14.4296 13.1553 16.0007 13.1553Z" fill="#FAF4EA"/>
</g>
<defs>
<clipPath id="clip0_308_51">
<rect width="32" height="32" fill="white"/>
</clipPath>
</defs>
</svg>
